<?xml version="1.0" encoding="UTF-8" standalone="no"?>
<!DOCTYPE svg PUBLIC "-//W3C//DTD SVG 1.1//EN"
 "http://www.w3.org/Graphics/SVG/1.1/DTD/svg11.dtd">
<!-- Generated by graphviz version 13.1.0 (20250701.0955)
 -->
<!-- Title: ntag21x_basic_search Pages: 1 -->
<svg width="298pt" height="268pt"
 viewBox="0.00 0.00 298.00 268.00" xmlns="http://www.w3.org/2000/svg" xmlns:xlink="http://www.w3.org/1999/xlink">
<g id="graph0" class="graph" transform="scale(1 1) rotate(0) translate(4 264)">
<title>ntag21x_basic_search</title>
<!-- Node1 -->
<g id="Node000001" class="node">
<title>Node1</title>
<g id="a_Node000001"><a xlink:title="basic example search">
<polygon fill="#999999" stroke="#666666" points="113.5,-134 0,-134 0,-114 113.5,-114 113.5,-134"/>
<text xml:space="preserve" text-anchor="middle" x="56.75" y="-120.5" font-family="Helvetica,sans-Serif" font-size="10.00">ntag21x_basic_search</text>
</a>
</g>
</g>
<!-- Node2 -->
<g id="Node000002" class="node">
<title>Node2</title>
<g id="a_Node000002"><a xlink:href="group__ntag21x__basic__driver.html#ga0ab45307369bd23e67e44cafddbbfb95" target="_top" xlink:title="ntag21x anti collision cl1">
<polygon fill="white" stroke="#666666" points="282.12,-260 157.38,-260 157.38,-240 282.12,-240 282.12,-260"/>
<text xml:space="preserve" text-anchor="middle" x="219.75" y="-246.5" font-family="Helvetica,sans-Serif" font-size="10.00">ntag21x_anticollision_cl1</text>
</a>
</g>
</g>
<!-- Node1&#45;&gt;Node2 -->
<g id="edge1_Node000001_Node000002" class="edge">
<title>Node1&#45;&gt;Node2</title>
<g id="a_edge1_Node000001_Node000002"><a xlink:title=" ">
<path fill="none" stroke="#63b8ff" d="M63.64,-134.32C76.4,-155.74 108.78,-205.19 149.5,-231 151.77,-232.44 154.14,-233.76 156.59,-234.99"/>
<polygon fill="#63b8ff" stroke="#63b8ff" points="155.03,-238.13 165.59,-238.91 157.82,-231.71 155.03,-238.13"/>
</a>
</g>
</g>
<!-- Node3 -->
<g id="Node000003" class="node">
<title>Node3</title>
<g id="a_Node000003"><a xlink:href="group__ntag21x__basic__driver.html#gacdd6b718efb94f74faac415d4eb0c207" target="_top" xlink:title="ntag21x anti collision cl2">
<polygon fill="white" stroke="#666666" points="282.12,-222 157.38,-222 157.38,-202 282.12,-202 282.12,-222"/>
<text xml:space="preserve" text-anchor="middle" x="219.75" y="-208.5" font-family="Helvetica,sans-Serif" font-size="10.00">ntag21x_anticollision_cl2</text>
</a>
</g>
</g>
<!-- Node1&#45;&gt;Node3 -->
<g id="edge2_Node000001_Node000003" class="edge">
<title>Node1&#45;&gt;Node3</title>
<g id="a_edge2_Node000001_Node000003"><a xlink:title=" ">
<path fill="none" stroke="#63b8ff" d="M68.69,-134.45C85.02,-149.5 117.3,-177.19 149.5,-193 153.02,-194.73 156.72,-196.32 160.5,-197.78"/>
<polygon fill="#63b8ff" stroke="#63b8ff" points="159.28,-201.06 169.88,-201.06 161.59,-194.45 159.28,-201.06"/>
</a>
</g>
</g>
<!-- Node4 -->
<g id="Node000004" class="node">
<title>Node4</title>
<g id="a_Node000004"><a xlink:href="group__ntag21x__basic__driver.html#gace0e27229c27cdae1c48fab751a45435" target="_top" xlink:title="ntag21x get the capability container">
<polygon fill="white" stroke="#666666" points="277.62,-184 161.88,-184 161.88,-152 277.62,-152 277.62,-184"/>
<text xml:space="preserve" text-anchor="start" x="169.88" y="-170.5" font-family="Helvetica,sans-Serif" font-size="10.00">ntag21x_get_capability</text>
<text xml:space="preserve" text-anchor="middle" x="219.75" y="-158.5" font-family="Helvetica,sans-Serif" font-size="10.00">_container</text>
</a>
</g>
</g>
<!-- Node1&#45;&gt;Node4 -->
<g id="edge3_Node000001_Node000004" class="edge">
<title>Node1&#45;&gt;Node4</title>
<g id="a_edge3_Node000001_Node000004"><a xlink:title=" ">
<path fill="none" stroke="#63b8ff" d="M95.9,-134.43C112.31,-138.91 131.99,-144.29 150.74,-149.41"/>
<polygon fill="#63b8ff" stroke="#63b8ff" points="149.61,-152.73 160.18,-151.99 151.46,-145.98 149.61,-152.73"/>
</a>
</g>
</g>
<!-- Node5 -->
<g id="Node000005" class="node">
<title>Node5</title>
<g id="a_Node000005"><a xlink:href="group__ntag21x__interface__driver.html#ga010dc86f329b1d0b0284538df4973d2d" target="_top" xlink:title="interface delay ms">
<polygon fill="white" stroke="#666666" points="290,-134 149.5,-134 149.5,-114 290,-114 290,-134"/>
<text xml:space="preserve" text-anchor="middle" x="219.75" y="-120.5" font-family="Helvetica,sans-Serif" font-size="10.00">ntag21x_interface_delay_ms</text>
</a>
</g>
</g>
<!-- Node1&#45;&gt;Node5 -->
<g id="edge4_Node000001_Node000005" class="edge">
<title>Node1&#45;&gt;Node5</title>
<g id="a_edge4_Node000001_Node000005"><a xlink:title=" ">
<path fill="none" stroke="#63b8ff" d="M113.61,-124C121.39,-124 129.5,-124 137.63,-124"/>
<polygon fill="#63b8ff" stroke="#63b8ff" points="137.58,-127.5 147.58,-124 137.58,-120.5 137.58,-127.5"/>
</a>
</g>
</g>
<!-- Node6 -->
<g id="Node000006" class="node">
<title>Node6</title>
<g id="a_Node000006"><a xlink:href="group__ntag21x__basic__driver.html#ga54889833456c5c1b9dc993bd9fc9441d" target="_top" xlink:title="ntag21x request">
<polygon fill="white" stroke="#666666" points="263.75,-96 175.75,-96 175.75,-76 263.75,-76 263.75,-96"/>
<text xml:space="preserve" text-anchor="middle" x="219.75" y="-82.5" font-family="Helvetica,sans-Serif" font-size="10.00">ntag21x_request</text>
</a>
</g>
</g>
<!-- Node1&#45;&gt;Node6 -->
<g id="edge5_Node000001_Node000006" class="edge">
<title>Node1&#45;&gt;Node6</title>
<g id="a_edge5_Node000001_Node000006"><a xlink:title=" ">
<path fill="none" stroke="#63b8ff" d="M102.17,-113.52C121.41,-108.97 144.12,-103.61 164.36,-98.84"/>
<polygon fill="#63b8ff" stroke="#63b8ff" points="164.91,-102.3 173.84,-96.6 163.3,-95.49 164.91,-102.3"/>
</a>
</g>
</g>
<!-- Node7 -->
<g id="Node000007" class="node">
<title>Node7</title>
<g id="a_Node000007"><a xlink:href="group__ntag21x__basic__driver.html#gae582a25c078fa1a9a3beb36c4bcebbe2" target="_top" xlink:title="ntag21x select cl1">
<polygon fill="white" stroke="#666666" points="269.75,-58 169.75,-58 169.75,-38 269.75,-38 269.75,-58"/>
<text xml:space="preserve" text-anchor="middle" x="219.75" y="-44.5" font-family="Helvetica,sans-Serif" font-size="10.00">ntag21x_select_cl1</text>
</a>
</g>
</g>
<!-- Node1&#45;&gt;Node7 -->
<g id="edge6_Node000001_Node000007" class="edge">
<title>Node1&#45;&gt;Node7</title>
<g id="a_edge6_Node000001_Node000007"><a xlink:title=" ">
<path fill="none" stroke="#63b8ff" d="M71.66,-113.57C89.05,-100.96 120.11,-79.84 149.5,-67 153.74,-65.15 158.21,-63.43 162.75,-61.85"/>
<polygon fill="#63b8ff" stroke="#63b8ff" points="163.51,-65.29 171.96,-58.88 161.36,-58.62 163.51,-65.29"/>
</a>
</g>
</g>
<!-- Node8 -->
<g id="Node000008" class="node">
<title>Node8</title>
<g id="a_Node000008"><a xlink:href="group__ntag21x__basic__driver.html#ga4960c052cb96a4d0d1df7d77584be411" target="_top" xlink:title="ntag21x select cl2">
<polygon fill="white" stroke="#666666" points="269.75,-20 169.75,-20 169.75,0 269.75,0 269.75,-20"/>
<text xml:space="preserve" text-anchor="middle" x="219.75" y="-6.5" font-family="Helvetica,sans-Serif" font-size="10.00">ntag21x_select_cl2</text>
</a>
</g>
</g>
<!-- Node1&#45;&gt;Node8 -->
<g id="edge7_Node000001_Node000008" class="edge">
<title>Node1&#45;&gt;Node8</title>
<g id="a_edge7_Node000001_Node000008"><a xlink:title=" ">
<path fill="none" stroke="#63b8ff" d="M64.77,-113.67C78.62,-94.11 111.44,-51.57 149.5,-29 152.46,-27.24 155.59,-25.65 158.81,-24.19"/>
<polygon fill="#63b8ff" stroke="#63b8ff" points="159.93,-27.51 167.94,-20.58 157.36,-21 159.93,-27.51"/>
</a>
</g>
</g>
</g>
</svg>
