<?xml version="1.0" encoding="UTF-8" standalone="no"?>
<!DOCTYPE svg PUBLIC "-//W3C//DTD SVG 1.1//EN"
 "http://www.w3.org/Graphics/SVG/1.1/DTD/svg11.dtd">
<!-- Generated by graphviz version 13.1.0 (20250701.0955)
 -->
<!-- Title: ntag21x_basic_set_password_pack Pages: 1 -->
<svg width="332pt" height="66pt"
 viewBox="0.00 0.00 332.00 66.00" xmlns="http://www.w3.org/2000/svg" xmlns:xlink="http://www.w3.org/1999/xlink">
<g id="graph0" class="graph" transform="scale(1 1) rotate(0) translate(4 62)">
<title>ntag21x_basic_set_password_pack</title>
<!-- Node1 -->
<g id="Node000001" class="node">
<title>Node1</title>
<g id="a_Node000001"><a xlink:title="basic example set password and pack">
<polygon fill="#999999" stroke="#666666" points="171.25,-39 0,-39 0,-19 171.25,-19 171.25,-39"/>
<text xml:space="preserve" text-anchor="middle" x="85.62" y="-25.5" font-family="Helvetica,sans-Serif" font-size="10.00">ntag21x_basic_set_password_pack</text>
</a>
</g>
</g>
<!-- Node2 -->
<g id="Node000002" class="node">
<title>Node2</title>
<g id="a_Node000002"><a xlink:href="group__ntag21x__basic__driver.html#ga14b082a06de91a32ff2debb12dbc3780" target="_top" xlink:title="ntag21x set the pack">
<polygon fill="white" stroke="#666666" points="313.25,-58 217.75,-58 217.75,-38 313.25,-38 313.25,-58"/>
<text xml:space="preserve" text-anchor="middle" x="265.5" y="-44.5" font-family="Helvetica,sans-Serif" font-size="10.00">ntag21x_set_pack</text>
</a>
</g>
</g>
<!-- Node1&#45;&gt;Node2 -->
<g id="edge1_Node000001_Node000002" class="edge">
<title>Node1&#45;&gt;Node2</title>
<g id="a_edge1_Node000001_Node000002"><a xlink:title=" ">
<path fill="none" stroke="#63b8ff" d="M171.66,-38.08C183.32,-39.33 195.08,-40.58 206.12,-41.76"/>
<polygon fill="#63b8ff" stroke="#63b8ff" points="205.52,-45.22 215.83,-42.8 206.26,-38.26 205.52,-45.22"/>
</a>
</g>
</g>
<!-- Node3 -->
<g id="Node000003" class="node">
<title>Node3</title>
<g id="a_Node000003"><a xlink:href="group__ntag21x__basic__driver.html#gad3a2a49338eef471b8f8ad8473fb3bd1" target="_top" xlink:title="ntag21x set the password">
<polygon fill="white" stroke="#666666" points="323.75,-20 207.25,-20 207.25,0 323.75,0 323.75,-20"/>
<text xml:space="preserve" text-anchor="middle" x="265.5" y="-6.5" font-family="Helvetica,sans-Serif" font-size="10.00">ntag21x_set_password</text>
</a>
</g>
</g>
<!-- Node1&#45;&gt;Node3 -->
<g id="edge2_Node000001_Node000003" class="edge">
<title>Node1&#45;&gt;Node3</title>
<g id="a_edge2_Node000001_Node000003"><a xlink:title=" ">
<path fill="none" stroke="#63b8ff" d="M171.66,-19.92C179.7,-19.06 187.78,-18.19 195.64,-17.35"/>
<polygon fill="#63b8ff" stroke="#63b8ff" points="195.9,-20.85 205.47,-16.31 195.16,-13.89 195.9,-20.85"/>
</a>
</g>
</g>
</g>
</svg>
