<?xml version="1.0" encoding="UTF-8" standalone="no"?>
<!DOCTYPE svg PUBLIC "-//W3C//DTD SVG 1.1//EN"
 "http://www.w3.org/Graphics/SVG/1.1/DTD/svg11.dtd">
<!-- Generated by graphviz version 13.1.0 (20250701.0955)
 -->
<!-- Title: ntag21x_basic_set_mirror Pages: 1 -->
<svg width="297pt" height="104pt"
 viewBox="0.00 0.00 297.00 104.00" xmlns="http://www.w3.org/2000/svg" xmlns:xlink="http://www.w3.org/1999/xlink">
<g id="graph0" class="graph" transform="scale(1 1) rotate(0) translate(4 100)">
<title>ntag21x_basic_set_mirror</title>
<!-- Node1 -->
<g id="Node000001" class="node">
<title>Node1</title>
<g id="a_Node000001"><a xlink:title="basic example set mirror">
<polygon fill="#999999" stroke="#666666" points="127.75,-58 0,-58 0,-38 127.75,-38 127.75,-58"/>
<text xml:space="preserve" text-anchor="middle" x="63.88" y="-44.5" font-family="Helvetica,sans-Serif" font-size="10.00">ntag21x_basic_set_mirror</text>
</a>
</g>
</g>
<!-- Node2 -->
<g id="Node000002" class="node">
<title>Node2</title>
<g id="a_Node000002"><a xlink:href="group__ntag21x__basic__driver.html#gab54c07f28ffc2d0825050192efdbcc37" target="_top" xlink:title="ntag21x set the mirror">
<polygon fill="white" stroke="#666666" points="276.12,-96 176.88,-96 176.88,-76 276.12,-76 276.12,-96"/>
<text xml:space="preserve" text-anchor="middle" x="226.5" y="-82.5" font-family="Helvetica,sans-Serif" font-size="10.00">ntag21x_set_mirror</text>
</a>
</g>
</g>
<!-- Node1&#45;&gt;Node2 -->
<g id="edge1_Node000001_Node000002" class="edge">
<title>Node1&#45;&gt;Node2</title>
<g id="a_edge1_Node000001_Node000002"><a xlink:title=" ">
<path fill="none" stroke="#63b8ff" d="M109.19,-58.48C128.06,-62.95 150.28,-68.21 170.21,-72.92"/>
<polygon fill="#63b8ff" stroke="#63b8ff" points="169.32,-76.31 179.86,-75.2 170.93,-69.49 169.32,-76.31"/>
</a>
</g>
</g>
<!-- Node3 -->
<g id="Node000003" class="node">
<title>Node3</title>
<g id="a_Node000003"><a xlink:href="group__ntag21x__basic__driver.html#ga6bb786dc8ffcc9e9f68d461f57ed2e9b" target="_top" xlink:title="ntag21x set the mirror byte">
<polygon fill="white" stroke="#666666" points="288.12,-58 164.88,-58 164.88,-38 288.12,-38 288.12,-58"/>
<text xml:space="preserve" text-anchor="middle" x="226.5" y="-44.5" font-family="Helvetica,sans-Serif" font-size="10.00">ntag21x_set_mirror_byte</text>
</a>
</g>
</g>
<!-- Node1&#45;&gt;Node3 -->
<g id="edge2_Node000001_Node000003" class="edge">
<title>Node1&#45;&gt;Node3</title>
<g id="a_edge2_Node000001_Node000003"><a xlink:title=" ">
<path fill="none" stroke="#63b8ff" d="M127.9,-48C136.18,-48 144.71,-48 153.13,-48"/>
<polygon fill="#63b8ff" stroke="#63b8ff" points="152.99,-51.5 162.99,-48 152.99,-44.5 152.99,-51.5"/>
</a>
</g>
</g>
<!-- Node4 -->
<g id="Node000004" class="node">
<title>Node4</title>
<g id="a_Node000004"><a xlink:href="group__ntag21x__basic__driver.html#gaf3dfaa20194e66733dafea406595064d" target="_top" xlink:title="ntag21x set the mirror page">
<polygon fill="white" stroke="#666666" points="289.25,-20 163.75,-20 163.75,0 289.25,0 289.25,-20"/>
<text xml:space="preserve" text-anchor="middle" x="226.5" y="-6.5" font-family="Helvetica,sans-Serif" font-size="10.00">ntag21x_set_mirror_page</text>
</a>
</g>
</g>
<!-- Node1&#45;&gt;Node4 -->
<g id="edge3_Node000001_Node000004" class="edge">
<title>Node1&#45;&gt;Node4</title>
<g id="a_edge3_Node000001_Node000004"><a xlink:title=" ">
<path fill="none" stroke="#63b8ff" d="M109.19,-37.52C128.06,-33.05 150.28,-27.79 170.21,-23.08"/>
<polygon fill="#63b8ff" stroke="#63b8ff" points="170.93,-26.51 179.86,-20.8 169.32,-19.69 170.93,-26.51"/>
</a>
</g>
</g>
</g>
</svg>
