<?xml version="1.0" encoding="UTF-8" standalone="no"?>
<!DOCTYPE svg PUBLIC "-//W3C//DTD SVG 1.1//EN"
 "http://www.w3.org/Graphics/SVG/1.1/DTD/svg11.dtd">
<!-- Generated by graphviz version 13.1.0 (20250701.0955)
 -->
<!-- Title: ntag21x_basic_init Pages: 1 -->
<svg width="308pt" height="254pt"
 viewBox="0.00 0.00 308.00 254.00" xmlns="http://www.w3.org/2000/svg" xmlns:xlink="http://www.w3.org/1999/xlink">
<g id="graph0" class="graph" transform="scale(1 1) rotate(0) translate(4 250)">
<title>ntag21x_basic_init</title>
<!-- Node1 -->
<g id="Node000001" class="node">
<title>Node1</title>
<g id="a_Node000001"><a xlink:title="basic example init">
<polygon fill="#999999" stroke="#666666" points="97,-136 0,-136 0,-116 97,-116 97,-136"/>
<text xml:space="preserve" text-anchor="middle" x="48.5" y="-122.5" font-family="Helvetica,sans-Serif" font-size="10.00">ntag21x_basic_init</text>
</a>
</g>
</g>
<!-- Node2 -->
<g id="Node000002" class="node">
<title>Node2</title>
<g id="a_Node000002"><a xlink:href="group__ntag21x__basic__driver.html#gaadd40c483b0c90f4b677b2a8e5991223" target="_top" xlink:title="initialize the chip">
<polygon fill="white" stroke="#666666" points="250.62,-246 182.12,-246 182.12,-226 250.62,-226 250.62,-246"/>
<text xml:space="preserve" text-anchor="middle" x="216.38" y="-232.5" font-family="Helvetica,sans-Serif" font-size="10.00">ntag21x_init</text>
</a>
</g>
</g>
<!-- Node1&#45;&gt;Node2 -->
<g id="edge1_Node000001_Node000002" class="edge">
<title>Node1&#45;&gt;Node2</title>
<g id="a_edge1_Node000001_Node000002"><a xlink:title=" ">
<path fill="none" stroke="#63b8ff" d="M55.88,-136.33C68.25,-155.45 97.43,-196.28 133,-217 144.48,-223.69 158.13,-228.02 170.99,-230.83"/>
<polygon fill="#63b8ff" stroke="#63b8ff" points="170.05,-234.21 180.53,-232.64 171.36,-227.33 170.05,-234.21"/>
</a>
</g>
</g>
<!-- Node3 -->
<g id="Node000003" class="node">
<title>Node3</title>
<g id="a_Node000003"><a xlink:href="group__ntag21x__interface__driver.html#gacb31fa38770fc9280c851e9766964297" target="_top" xlink:title="interface contactless deinit">
<polygon fill="white" stroke="#666666" points="290.75,-208 142,-208 142,-176 290.75,-176 290.75,-208"/>
<text xml:space="preserve" text-anchor="start" x="150" y="-194.5" font-family="Helvetica,sans-Serif" font-size="10.00">ntag21x_interface_contactless</text>
<text xml:space="preserve" text-anchor="middle" x="216.38" y="-182.5" font-family="Helvetica,sans-Serif" font-size="10.00">_deinit</text>
</a>
</g>
</g>
<!-- Node1&#45;&gt;Node3 -->
<g id="edge2_Node000001_Node000003" class="edge">
<title>Node1&#45;&gt;Node3</title>
<g id="a_edge2_Node000001_Node000003"><a xlink:title=" ">
<path fill="none" stroke="#63b8ff" d="M68.34,-136.34C85.01,-145.23 110.16,-158 133,-167 137.3,-168.7 141.77,-170.35 146.29,-171.94"/>
<polygon fill="#63b8ff" stroke="#63b8ff" points="144.89,-175.16 155.48,-175.06 147.14,-168.53 144.89,-175.16"/>
</a>
</g>
</g>
<!-- Node4 -->
<g id="Node000004" class="node">
<title>Node4</title>
<g id="a_Node000004"><a xlink:href="group__ntag21x__interface__driver.html#ga98c6f3f0e1efe6e5b3e64666cdddf31b" target="_top" xlink:title="interface contactless init">
<polygon fill="white" stroke="#666666" points="299.75,-158 133,-158 133,-138 299.75,-138 299.75,-158"/>
<text xml:space="preserve" text-anchor="middle" x="216.38" y="-144.5" font-family="Helvetica,sans-Serif" font-size="10.00">ntag21x_interface_contactless_init</text>
</a>
</g>
</g>
<!-- Node1&#45;&gt;Node4 -->
<g id="edge3_Node000001_Node000004" class="edge">
<title>Node1&#45;&gt;Node4</title>
<g id="a_edge3_Node000001_Node000004"><a xlink:title=" ">
<path fill="none" stroke="#63b8ff" d="M97.48,-132.36C106.21,-133.52 115.58,-134.76 125.08,-136.02"/>
<polygon fill="#63b8ff" stroke="#63b8ff" points="124.38,-139.46 134.75,-137.31 125.3,-132.52 124.38,-139.46"/>
</a>
</g>
</g>
<!-- Node5 -->
<g id="Node000005" class="node">
<title>Node5</title>
<g id="a_Node000005"><a xlink:href="group__ntag21x__interface__driver.html#ga97cc7134e2922258ee81ff2a211d2918" target="_top" xlink:title="interface contactless transceiver">
<polygon fill="white" stroke="#666666" points="290.75,-120 142,-120 142,-88 290.75,-88 290.75,-120"/>
<text xml:space="preserve" text-anchor="start" x="150" y="-106.5" font-family="Helvetica,sans-Serif" font-size="10.00">ntag21x_interface_contactless</text>
<text xml:space="preserve" text-anchor="middle" x="216.38" y="-94.5" font-family="Helvetica,sans-Serif" font-size="10.00">_transceiver</text>
</a>
</g>
</g>
<!-- Node1&#45;&gt;Node5 -->
<g id="edge4_Node000001_Node000005" class="edge">
<title>Node1&#45;&gt;Node5</title>
<g id="a_edge4_Node000001_Node000005"><a xlink:title=" ">
<path fill="none" stroke="#63b8ff" d="M97.48,-119.64C107.81,-118.27 119.03,-116.78 130.3,-115.28"/>
<polygon fill="#63b8ff" stroke="#63b8ff" points="130.61,-118.77 140.06,-113.99 129.69,-111.83 130.61,-118.77"/>
</a>
</g>
</g>
<!-- Node6 -->
<g id="Node000006" class="node">
<title>Node6</title>
<g id="a_Node000006"><a xlink:href="group__ntag21x__interface__driver.html#ga6fd34e57f1f28c332514d7446064208b" target="_top" xlink:title="interface print format data">
<polygon fill="white" stroke="#666666" points="278.75,-70 154,-70 154,-38 278.75,-38 278.75,-70"/>
<text xml:space="preserve" text-anchor="start" x="162" y="-56.5" font-family="Helvetica,sans-Serif" font-size="10.00">ntag21x_interface_debug</text>
<text xml:space="preserve" text-anchor="middle" x="216.38" y="-44.5" font-family="Helvetica,sans-Serif" font-size="10.00">_print</text>
</a>
</g>
</g>
<!-- Node1&#45;&gt;Node6 -->
<g id="edge5_Node000001_Node000006" class="edge">
<title>Node1&#45;&gt;Node6</title>
<g id="a_edge5_Node000001_Node000006"><a xlink:title=" ">
<path fill="none" stroke="#63b8ff" d="M65.59,-115.54C82.02,-105.2 108.52,-89.45 133,-79 136.98,-77.3 141.12,-75.66 145.33,-74.1"/>
<polygon fill="#63b8ff" stroke="#63b8ff" points="146.19,-77.51 154.44,-70.87 143.85,-70.91 146.19,-77.51"/>
</a>
</g>
</g>
<!-- Node7 -->
<g id="Node000007" class="node">
<title>Node7</title>
<g id="a_Node000007"><a xlink:href="group__ntag21x__interface__driver.html#ga010dc86f329b1d0b0284538df4973d2d" target="_top" xlink:title="interface delay ms">
<polygon fill="white" stroke="#666666" points="286.62,-20 146.12,-20 146.12,0 286.62,0 286.62,-20"/>
<text xml:space="preserve" text-anchor="middle" x="216.38" y="-6.5" font-family="Helvetica,sans-Serif" font-size="10.00">ntag21x_interface_delay_ms</text>
</a>
</g>
</g>
<!-- Node1&#45;&gt;Node7 -->
<g id="edge6_Node000001_Node000007" class="edge">
<title>Node1&#45;&gt;Node7</title>
<g id="a_edge6_Node000001_Node000007"><a xlink:title=" ">
<path fill="none" stroke="#63b8ff" d="M55.33,-115.61C67.17,-95.5 96.1,-51.29 133,-29 135.47,-27.51 138.05,-26.13 140.71,-24.86"/>
<polygon fill="#63b8ff" stroke="#63b8ff" points="141.97,-28.13 149.86,-21.07 139.29,-21.66 141.97,-28.13"/>
</a>
</g>
</g>
</g>
</svg>
